<svg xmlns="http://www.w3.org/2000/svg" width="69" height="69" viewBox="0 0 69 69">
  <defs>
    <style>
      .cls-1 {
        fill: #35b8e7;
        fill-rule: evenodd;
      }
    </style>
  </defs>
  <path id="alert" class="cls-1" d="M544.5,1669a34.5,34.5,0,1,1-34.5,34.5A34.5,34.5,0,0,1,544.5,1669Zm0,14.26a3.985,3.985,0,0,1,3.981,3.98v18.58a3.981,3.981,0,0,1-7.961,0v-18.58A3.985,3.985,0,0,1,544.5,1683.26Zm0,31.85a3.98,3.98,0,1,1-3.98,3.98A3.979,3.979,0,0,1,544.5,1715.11Z" transform="translate(-510 -1669)"/>
</svg>
