<svg xmlns="http://www.w3.org/2000/svg" viewBox="0 0 42.4 51.08">
  <title>arr</title>
  <g id="Layer_2" data-name="Layer 2">
    <g id="Layer_1-2" data-name="Layer 1">
      <path d="M10.9,51.08c-.4-.4-1.28-1.17-2.65-2.3a46.06,46.06,0,0,1-3.7-3.4,8.11,8.11,0,0,1-2-3A13.81,13.81,0,0,1,7.2,39a27.88,27.88,0,0,0,5.85-3.65,32.41,32.41,0,0,0,6.55-7.8l2.3.7a6.74,6.74,0,0,0,.2-1.6,3.69,3.69,0,0,0-.5-.2,1.25,1.25,0,0,1-.7-1v-.2a11.22,11.22,0,0,0,4.7-1.7q-.3-1-4.1-3.1l-7.8-4.3c-.13-.07-1.32-.58-3.55-1.55l-6.5-2.8A37.59,37.59,0,0,0,0,10.38a20.52,20.52,0,0,1,2.25-4.7Q4.4,1.88,4.8.88q.9-2,5.7.55t10.9,6.3q6.11,3.75,8.9,3.95a9.62,9.62,0,0,0-.6.8.58.58,0,0,0-.1.55,1.26,1.26,0,0,0,.15.3,5.48,5.48,0,0,0,.6.35,6.33,6.33,0,0,0,.85.4c.13.07.62.35,1.45.85a6.3,6.3,0,0,0,1.85.85,6.37,6.37,0,0,0,.2-.9,1.81,1.81,0,0,1,.8.15,1.93,1.93,0,0,1,.5.35,11.07,11.07,0,0,1,.75.95c.37.5.75,1,1.15,1.45s.6.87.8,1.2l3.3,4.2.4.8L37,28.18q-1.39,1.09-7.1,6.6a91.63,91.63,0,0,1-11,9.2,20.23,20.23,0,0,0-2.35,2.25c-1.17,1.23-2.28,2.35-3.35,3.35S11.37,51.08,10.9,51.08Z"/>
    </g>
  </g>
</svg>
