<svg xmlns="http://www.w3.org/2000/svg" width="33.062" height="37.97" viewBox="0 0 33.062 37.97">
  <defs>
    <style>
      .cls-1 {
        fill: #fff;
        fill-rule: evenodd;
      }
    </style>
  </defs>
  <path id="atom" class="cls-1" d="M221.978,1413.05c3.295,3.61,4.77,7.16,3.491,9.44s-5,2.74-9.682,1.63c-1.4,4.75-3.668,7.86-6.235,7.86s-4.84-3.12-6.237-7.89c-4.73,1.15-8.5.69-9.787-1.6s0.2-5.84,3.49-9.45c-3.357-3.64-4.868-7.24-3.577-9.53s5.1-2.76,9.862-1.59c1.4-4.78,3.673-7.91,6.249-7.91s4.839,3.12,6.237,7.89c4.72-1.14,8.482-.68,9.767,1.61S225.335,1409.4,221.978,1413.05Zm-27.2-8.75c-0.988,1.75.375,4.64,3.261,7.68a36.938,36.938,0,0,1,4.041-3.43,38.951,38.951,0,0,1,.847-5.2C198.891,1402.3,195.768,1402.53,194.775,1404.3Zm7.139,6.3c-1.034.8-1.979,1.62-2.824,2.42a33.415,33.415,0,0,0,2.829,2.44c-0.043-.81-0.072-1.63-0.072-2.46S201.873,1411.39,201.914,1410.6Zm0.161,6.91a37.37,37.37,0,0,1-4.041-3.42c-2.835,3.02-4.152,5.86-3.171,7.61s4.076,1.99,8.073.96A38.007,38.007,0,0,1,202.075,1417.51Zm13.3,1.08c-0.64.43-1.3,0.85-1.978,1.26s-1.384.78-2.074,1.14a34.986,34.986,0,0,0,3.436,1.3C215.013,1421.15,215.213,1419.9,215.372,1418.59Zm-5.82,11.81c1.965,0,3.712-2.61,4.84-6.65a35.572,35.572,0,0,1-4.883-1.87,34,34,0,0,1-4.795,1.83C205.841,1427.77,207.583,1430.4,209.552,1430.4Zm-5.193-8.15a32.253,32.253,0,0,0,3.329-1.25c-0.693-.36-1.389-0.74-2.086-1.15-0.645-.39-1.266-0.78-1.873-1.18C203.885,1419.94,204.108,1421.13,204.359,1422.25Zm-0.626-14.86c0.634-.43,1.281-0.84,1.957-1.24s1.33-.76,1.993-1.11a35.334,35.334,0,0,0-3.349-1.28C204.084,1404.88,203.889,1406.11,203.733,1407.39Zm5.819-11.79c-1.975,0-3.728,2.63-4.856,6.7a36.619,36.619,0,0,1,4.792,1.85,35.731,35.731,0,0,1,4.9-1.87C213.259,1398.22,211.519,1395.6,209.552,1395.6Zm5.192,8.13a35.114,35.114,0,0,0-3.445,1.3c0.668,0.35,1.338.72,2.008,1.12,0.722,0.42,1.412.87,2.086,1.32A37.274,37.274,0,0,0,214.744,1403.73Zm0.846,5.77c-0.962-.68-1.98-1.35-3.053-1.98-1.029-.61-2.049-1.15-3.058-1.64-1,.49-2.006,1.04-3.019,1.64s-2,1.24-2.923,1.88c-0.088,1.17-.149,2.36-0.149,3.6s0.049,2.47.138,3.64c0.9,0.63,1.851,1.25,2.847,1.84,1.058,0.62,2.106,1.17,3.144,1.68,1.024-.51,2.064-1.07,3.107-1.68s2.014-1.25,2.943-1.9c0.087-1.16.148-2.35,0.148-3.58C215.715,1411.8,215.672,1410.63,215.59,1409.5Zm8.544,12.2c0.979-1.74-.349-4.59-3.177-7.6a36.888,36.888,0,0,1-3.93,3.33,38.613,38.613,0,0,1-.861,5.26C220.113,1423.69,223.157,1423.44,224.134,1421.7Zm-6.945-6.33a33.153,33.153,0,0,0,2.715-2.32,34.409,34.409,0,0,0-2.71-2.36c0.037,0.76.062,1.52,0.062,2.31S217.229,1414.6,217.189,1415.37Zm7.032-11.07c-0.984-1.75-4.066-2-8.054-.98a38.4,38.4,0,0,1,.877,5.32,37.61,37.61,0,0,1,3.92,3.35C223.857,1408.94,225.211,1406.06,224.221,1404.3Zm-14.435,11.71a3.146,3.146,0,1,1,3.06-3.15A3.106,3.106,0,0,1,209.786,1416.01Z" transform="translate(-192.969 -1394)"/>
</svg>
