<svg xmlns="http://www.w3.org/2000/svg" width="21" height="27" viewBox="0 0 21 27">
  <defs>
    <style>
      .cls-1 {
        fill: #fff;
        fill-rule: evenodd;
      }
    </style>
  </defs>
  <path id="calendar-wr" class="cls-1" d="M227,2458h3v5h4v-5h7v5h4l-0.063-5H248v24H227v-24Zm4-3h2v4h-2v-4Zm0,5h2v2h-2v-2Zm11,0h2v2h-2v-2Zm0-5h2v4h-2v-4Zm-12,12.94h3v3h-3v-3Zm4,0h3v3h-3v-3Zm4,0h3v3h-3v-3Zm4,0h3v3h-3v-3Zm0,4h3v3h-3v-3Zm0,4h3v3h-3v-3Zm-4-4h3v3h-3v-3Zm0,4h3v3h-3v-3Zm-4-4h3v3h-3v-3Zm0,4h3v3h-3v-3Zm-4-4h3v3h-3v-3Zm0,4h3v3h-3v-3Z" transform="translate(-227 -2455)"/>
</svg>
