<svg xmlns="http://www.w3.org/2000/svg" width="54" height="61" viewBox="0 0 54 61">
  <defs>
    <style>
      .cls-1 {
        fill: #fff;
        fill-rule: evenodd;
      }
    </style>
  </defs>
  <path id="calendar" class="cls-1" d="M154.879,3733.07l5.59,1.89-3.1,9.31,7.453,2.52,3.1-9.32,13.043,4.41-3.1,9.31,7.453,2.52,2.984-9.36,5.706,1.93L179.125,3791,140,3777.79Zm9.314-3.08,3.726,1.26-2.48,7.46-3.727-1.26Zm-3.1,9.32,3.727,1.26-1.241,3.73-3.726-1.26Zm20.5,6.92,3.727,1.26-1.241,3.73-3.726-1.26Zm3.1-9.32,3.726,1.26-2.48,7.46-3.727-1.26Zm-30.382,16.56,5.59,1.89-1.861,5.59-5.59-1.88Zm7.453,2.52,5.59,1.89-1.861,5.59-5.589-1.89Zm7.453,2.52,5.59,1.89-1.861,5.59-5.59-1.89Zm7.453,2.51,5.59,1.89-1.861,5.59-5.589-1.89Zm-2.48,7.46,5.589,1.89-1.86,5.59-5.59-1.89Zm-2.481,7.45,5.59,1.89-1.86,5.59-5.59-1.89Zm-4.973-9.97,5.59,1.89-1.86,5.59-5.59-1.89Zm-2.48,7.46,5.59,1.88-1.86,5.59-5.59-1.88Zm-4.973-9.97,5.59,1.88-1.86,5.59-5.59-1.88Zm-2.48,7.45,5.59,1.89-1.861,5.59-5.589-1.89Zm-4.973-9.97,5.59,1.89-1.86,5.59-5.59-1.89Zm-2.48,7.45,5.59,1.89-1.861,5.59-5.59-1.89Z" transform="translate(-140 -3730)"/>
</svg>
