<svg
        xmlns="http://www.w3.org/2000/svg"
        xmlns:xlink="http://www.w3.org/1999/xlink"
        width="54px" height="37px">
    <path fill-rule="evenodd"  fill="rgb(39, 60, 67)"
          d="M18.015,0.759 L54.000,-0.002 L48.640,23.586 L19.547,23.586 L18.015,0.759 Z"/>
    <path fill-rule="evenodd"  fill="rgb(39, 60, 67)"
          d="M32.562,21.303 L41.750,28.911 L36.390,19.021 L32.562,21.303 Z"/>
    <path fill-rule="evenodd"  fill="rgb(255, 255, 255)"
          d="M44.792,13.689 L40.461,13.717 L40.205,9.301 L45.561,9.119 L44.792,13.689 ZM32.805,13.717 L32.549,9.301 L37.904,9.119 L37.136,13.689 L32.805,13.717 ZM25.149,13.717 L24.892,9.301 L30.248,9.119 L29.480,13.689 L25.149,13.717 Z"/>
    <path fill-rule="evenodd"  stroke-width="2px" stroke="rgb(255, 255, 255)" fill="rgb(39, 60, 67)"
          d="M27.203,17.219 L5.000,16.738 L8.307,31.635 L26.258,31.635 L27.203,17.219 Z"/>
    <path fill-rule="evenodd"  fill="rgb(39, 60, 67)"
          d="M18.227,30.193 L12.558,34.999 L15.865,28.752 L18.227,30.193 Z"/>
    <path fill-rule="evenodd"  fill="rgb(255, 255, 255)"
          d="M22.515,25.981 L19.790,25.999 L19.628,23.115 L22.999,22.996 L22.515,25.981 ZM14.971,25.999 L14.810,23.115 L18.180,22.996 L17.697,25.981 L14.971,25.999 ZM10.153,25.999 L9.991,23.115 L13.362,22.996 L12.878,25.981 L10.153,25.999 Z"/>
</svg>