<?xml version="1.0" encoding="iso-8859-1"?>
<!-- Generator: Adobe Illustrator 18.1.1, SVG Export Plug-In . SVG Version: 6.00 Build 0)  -->
<svg version="1.1" id="Capa_1" xmlns="http://www.w3.org/2000/svg" xmlns:xlink="http://www.w3.org/1999/xlink" x="0px" y="0px"
	 viewBox="0 0 25.954 25.954" style="enable-background:new 0 0 25.954 25.954;" xml:space="preserve">
<g>
	<path style="fill:#030104;" d="M24.44,5.994C15.143,5.994,18.172,0,11.505,0C7.286,0,6.518,2.148,5.846,4.166
		C5.253,5.945,0.467,18.511,0.467,18.511s0.014-0.02,0.035-0.048C0.17,19.158,0.003,19.87,0.003,20.51
		c0,2.705,1.889,5.444,5.5,5.444c4.055,0,5.5-2.066,5.5-4c0-2.289-2.386-4-4.519-4c-2.405,0-3.481,1.256-3.481,2.5
		c0,1.425,1.29,2.5,3,2.5c0.552,0,1-0.447,1-1s-0.448-1-1-1c-0.533,0-1-0.233-1-0.5c0-0.204,0.527-0.5,1.481-0.5
		c1.11,0,2.519,0.941,2.519,2c0,1.74-2.193,2-3.5,2c-2.418,0-3.5-1.729-3.5-3.444c0-0.923,0.871-3.556,4.74-3.556
		c3.107,0,4.196,1.617,5.574,3.664c1.6,2.377,3.591,5.336,9.294,5.336c0.513,0,0.919-0.39,0.977-0.887c0.004,0,0.008,0,0.012,0
		c0,0,3.096-16.54,3.277-17.332C26.347,5.688,24.44,5.994,24.44,5.994z"/>
</g>
<g>
</g>
<g>
</g>
<g>
</g>
<g>
</g>
<g>
</g>
<g>
</g>
<g>
</g>
<g>
</g>
<g>
</g>
<g>
</g>
<g>
</g>
<g>
</g>
<g>
</g>
<g>
</g>
<g>
</g>
</svg>
