<svg xmlns="http://www.w3.org/2000/svg" width="12.812" height="15.07" viewBox="0 0 12.812 15.07">
  <defs>
    <style>
      .cls-1 {
        fill: #fff;
        fill-rule: evenodd;
      }
    </style>
  </defs>
  <path id="cup" class="cls-1" d="M744.806,1494.06v0.53s-0.545-.05-0.545.25c0,0.24.545,0.26,0.545,0.26v0.58a0.617,0.617,0,0,1-.5.46,0.576,0.576,0,0,1-.561.52,0.61,0.61,0,0,0-.528.52,0.47,0.47,0,0,0,.545.52c0.778,0,3.137-.01,3.137-0.01a0.556,0.556,0,0,0,.557-0.51,0.512,0.512,0,0,0-.528-0.52,0.614,0.614,0,0,1-.61-0.54,0.44,0.44,0,0,1-.5-0.47v-0.57s0.577,0.12.577-.24c0-.31-0.577-0.25-0.577-0.25v-0.53a1.887,1.887,0,0,0,1.319-.54,10.077,10.077,0,0,0,4.517-8.29v-0.54a1.042,1.042,0,0,0-1.053-1.03c-0.3.01-.551,0.01-0.551,0.01a0.514,0.514,0,0,0-.5.52h-0.54c-0.009-.33-0.02-1.56-0.02-1.56h-7.334l-0.092,1.56h-0.458a0.513,0.513,0,0,0-.5-0.52s-0.249,0-.551-0.01a1.041,1.041,0,0,0-1.053,1.03v0.54a10.117,10.117,0,0,0,4.534,8.29A2.029,2.029,0,0,0,744.806,1494.06Zm5.783-8.84s0.463,1.98-2.267,6.35a24.883,24.883,0,0,0,.7-6.88c0.157-.01.528,0.01,0.528,0.01a0.5,0.5,0,0,0,.531-0.51,0.5,0.5,0,0,1,.508.53Zm-8.959-.53a15.117,15.117,0,0,0,1.092,6.85s-2.875-3.23-2.644-6.32l0-.5a0.5,0.5,0,0,1,.508-0.53,0.5,0.5,0,0,0,.53.51Zm0.8-1.02h5.8a0.258,0.258,0,0,1,.264.26,0.264,0.264,0,0,1-.264.26h-5.8a0.264,0.264,0,0,1-.264-0.26A0.258,0.258,0,0,1,742.431,1483.67Z" transform="translate(-739 -1482.62)"/>
</svg>
