<svg xmlns="http://www.w3.org/2000/svg" width="21.22" height="19.59" viewBox="0 0 21.22 19.59">
  <defs>
    <style>
      .cls-1 {
        fill: #273c43;
        fill-rule: evenodd;
      }
    </style>
  </defs>
  <path id="dislike" class="cls-1" d="M1252.85,4144.38s-3.13.01-3.8,0a0.876,0.876,0,0,0-.89.86s-1.02,9.33-1,9.81a0.8,0.8,0,0,0,.66.61h1.41l3.62-.02v-11.26Zm0.97,0.61,0.65-.19c0.63,0.46,1.24-.37,1.52-0.37l8.73-.01a3.453,3.453,0,0,1,1.62,1.08c0.39,0.71-.58,1.3-0.58,1.3s1.49,0.5,1.72,1.32-0.96,1.38-.99,1.48c2.25,0.56,1.03,2.6,1.03,2.6a1.97,1.97,0,0,1-.64.7c1.17-.03,2.29,1.75.74,3.64-1.42.04-5.61,0-5.61,0a8.632,8.632,0,0,1,.53,3c-0.17,1-.52,3.42-2.15,4.19s-1.84-.5-1.84-0.86-0.11-3.46-.11-3.46-2.32-4.3-4.18-4.38c-0.16-.01-0.43,0-0.43,0Z" transform="translate(-1247.16 -4144.38)"/>
</svg>
