<svg xmlns="http://www.w3.org/2000/svg" width="36.125" height="33.16" viewBox="0 0 36.125 33.16">
  <defs>
    <style>
      .cls-1 {
        fill: #fff;
        fill-rule: evenodd;
      }
    </style>
  </defs>
  <path id="graph" class="cls-1" d="M164.584,1333.07h1.373l0.023,31.74,34.74,0.07v1.33H164.584v-33.14Zm13.9,0h4.17a1.38,1.38,0,0,1,1.389,1.38v27.62h-6.949v-27.62A1.38,1.38,0,0,1,178.483,1333.07Zm-8.339,8.28h4.169a1.386,1.386,0,0,1,1.39,1.38v19.34h-6.949v-19.34A1.386,1.386,0,0,1,170.144,1341.35Zm16.678,8.29h4.17a1.386,1.386,0,0,1,1.389,1.38v11.05h-6.949v-11.05A1.386,1.386,0,0,1,186.822,1349.64Zm8.339,8.28h4.17a1.386,1.386,0,0,1,1.389,1.38v2.77h-6.949v-2.77A1.387,1.387,0,0,1,195.161,1357.92Z" transform="translate(-164.594 -1333.06)"/>
</svg>
