<svg xmlns="http://www.w3.org/2000/svg" width="28" height="18" viewBox="0 0 28 18">
  <defs>
    <style>
      .cls-1 {
        fill: #fff;
        fill-rule: evenodd;
      }
    </style>
  </defs>
  <path id="grid" class="cls-1" d="M1076,1359h4a2.006,2.006,0,0,1,2,2v4a2.006,2.006,0,0,1-2,2h-4a2.006,2.006,0,0,1-2-2v-4A2.006,2.006,0,0,1,1076,1359Zm10,0h4a2.006,2.006,0,0,1,2,2v4a2.006,2.006,0,0,1-2,2h-4a2.006,2.006,0,0,1-2-2v-4A2.006,2.006,0,0,1,1086,1359Zm10,0h4a2.006,2.006,0,0,1,2,2v4a2.006,2.006,0,0,1-2,2h-4a2.006,2.006,0,0,1-2-2v-4A2.006,2.006,0,0,1,1096,1359Zm-20,10h4a2.006,2.006,0,0,1,2,2v4a2.006,2.006,0,0,1-2,2h-4a2.006,2.006,0,0,1-2-2v-4A2.006,2.006,0,0,1,1076,1369Zm10,0h4a2.006,2.006,0,0,1,2,2v4a2.006,2.006,0,0,1-2,2h-4a2.006,2.006,0,0,1-2-2v-4A2.006,2.006,0,0,1,1086,1369Zm10,0h4a2.006,2.006,0,0,1,2,2v4a2.006,2.006,0,0,1-2,2h-4a2.006,2.006,0,0,1-2-2v-4A2.006,2.006,0,0,1,1096,1369Z" transform="translate(-1074 -1359)"/>
</svg>
