<svg xmlns="http://www.w3.org/2000/svg" width="48.781" height="42.47" viewBox="0 0 48.781 42.47">
  <defs>
    <style>
      .cls-1 {
        fill: #fff;
        fill-rule: evenodd;
      }
    </style>
  </defs>
  <path id="i-combos" class="cls-1" d="M181,3237l7.88,0.96v9.63l-7.717.08Zm9.5,1.87,7.683-.03,0.1,9.2-7.723.46Zm0.1,12.56,8.4-.46-0.874,8.67-7.568.35Zm-9.03-1.29h7.307v8.22h-7.317ZM199,3237l10-10,1,6Zm-0.664,23.02,13.794,3.12-4.541,4.04Zm-21.278-20.68-13.727-3.4,4.621-3.95Zm9.724-3.63-2.888-8.34,3.641,1.08Zm-6.305,26.54-5.079,7.22-1.256-3.59Zm-1.442-12.5-8.355,2.84,1.094-3.64Zm22.663,0.4,8.073-3.56L209,3250.31Z" transform="translate(-163.344 -3227)"/>
</svg>
