<svg xmlns="http://www.w3.org/2000/svg" width="43" height="43" viewBox="0 0 43 43">
  <defs>
    <style>
      .cls-1 {
        fill: #fff;
        fill-rule: evenodd;
      }
    </style>
  </defs>
  <path id="info" class="cls-1" d="M210.934,777.478a2.474,2.474,0,1,0,2.473-2.46A2.4,2.4,0,0,0,210.934,777.478Zm-5.5,8.542a11.932,11.932,0,0,0,.007,1.448l2.158-2.6a1.681,1.681,0,0,1,1.228-.739,0.56,0.56,0,0,1,.322.692l-3.572,11.833c-0.412,1.383.367,2.742,2.262,3.051,2.778,0,4.428-1.879,6.051-4.314a11.8,11.8,0,0,0,.038-1.492l-2.159,2.6a1.743,1.743,0,0,1-1.267.739,0.556,0.556,0,0,1-.338-0.627l3.6-11.89a2.43,2.43,0,0,0-2.232-3.059C209.72,781.662,207.055,783.585,205.432,786.02Zm5.085-20.038a21.5,21.5,0,1,1-21.5,21.5A21.5,21.5,0,0,1,210.517,765.982Z" transform="translate(-189.031 -765.969)"/>
</svg>
