<svg xmlns="http://www.w3.org/2000/svg" width="21.25" height="19.63" viewBox="0 0 21.25 19.63">
  <defs>
    <style>
      .cls-1 {
        fill: #273c43;
        fill-rule: evenodd;
      }
    </style>
  </defs>
  <path id="like" class="cls-1" d="M1166.69,4156.66s-3.13-.02-3.81,0a0.876,0.876,0,0,1-.89-0.86s-1.02-9.36-1-9.84a0.8,0.8,0,0,1,.66-0.61h1.42l3.62,0.02v11.29Zm0.97-.62,0.65,0.2c0.63-.46,1.25.37,1.52,0.37h8.75a3.407,3.407,0,0,0,1.62-1.08c0.39-.71-0.57-1.3-0.57-1.3s1.48-.5,1.72-1.32-0.97-1.38-1-1.49c2.26-.56,1.04-2.6,1.04-2.6a2.036,2.036,0,0,0-.65-0.7c1.17,0.03,2.3-1.75.75-3.65-1.42-.04-5.62,0-5.62,0a8.632,8.632,0,0,0,.53-3c-0.17-1.01-.52-3.43-2.15-4.2s-1.85.5-1.85,0.85-0.11,3.47-.11,3.47-2.33,4.31-4.18,4.4a4.272,4.272,0,0,1-.44-0.01Z" transform="translate(-1161 -4137.03)"/>
</svg>
