<svg xmlns="http://www.w3.org/2000/svg" width="29" height="28" viewBox="0 0 29 28">
  <defs>
    <style>
      .cls-1 {
        fill: #273c43;
        fill-rule: evenodd;
      }
    </style>
  </defs>
  <path id="megaphone" class="cls-1" d="M990,2799s10.06,0.25,14.94-6.75c0,0,1-1.25,1-.13l-0.07,16.94v6.63c0.07,1.06-.79.04-0.79,0.04s-3.77-6.73-15.018-6.73a1.009,1.009,0,0,1-1.062-.94v-8.12A0.819,0.819,0,0,1,990,2799Zm-2,1.06a0.913,0.913,0,0,0-1.063-1.06h-3.875s-3.062.12-3.062,2.94v3.87s-0.063,3.25,2.937,3.25a2.277,2.277,0,0,1,1.063,1.81v7a0.937,0.937,0,0,0,1,1.13h1.875a1.379,1.379,0,0,0,1.125-1.06s-0.125-3.88-.875-3.88c0,0,1.812-2.06-.188-3a5.142,5.142,0,0,0,1-2.06Zm20-9.06a1,1,0,0,1,1,1v24a1,1,0,0,1-2,0v-24A1,1,0,0,1,1008,2791Z" transform="translate(-980 -2791)"/>
</svg>
