<svg xmlns="http://www.w3.org/2000/svg" width="45" height="50" viewBox="0 0 45 50">
  <defs>
    <style>
      .cls-1 {
        fill: #fff;
        fill-rule: evenodd;
      }
    </style>
  </defs>
  <path id="menology" class="cls-1" d="M615.538,931.984H577.461A3.455,3.455,0,0,1,574,928.535v-37.93a3.455,3.455,0,0,1,3.461-3.449h3.462v1.724a5.193,5.193,0,0,0,10.385,0v-1.724h10.384v1.724a5.193,5.193,0,0,0,10.385,0v-1.724h3.461A3.455,3.455,0,0,1,619,890.605v37.93A3.455,3.455,0,0,1,615.538,931.984Zm0-32.759H577.461v29.31h38.077v-29.31Zm-29.423,8.62h-5.192v-5.172h5.192v5.172Zm0,8.621h-5.192v-5.173h5.192v5.173Zm0,8.621h-5.192v-5.172h5.192v5.172Zm8.654-17.242h-5.192v-5.172h5.192v5.172Zm0,8.621h-5.192v-5.173h5.192v5.173Zm0,8.621h-5.192v-5.172h5.192v5.172Zm8.654-17.242h-5.192v-5.172h5.192v5.172Zm0,8.621h-5.192v-5.173h5.192v5.173Zm0,8.621h-5.192v-5.172h5.192v5.172Zm8.654-17.242h-5.192v-5.172h5.192v5.172Zm0,8.621h-5.192v-5.173h5.192v5.173Zm0,8.621h-5.192v-5.172h5.192v5.172Zm-5.247-32.759a3.4,3.4,0,0,1-3.407-3.394v-3.557a3.408,3.408,0,0,1,6.815,0v3.557A3.4,3.4,0,0,1,606.83,892.328Zm-20.769,0a3.4,3.4,0,0,1-3.407-3.394v-3.557a3.408,3.408,0,0,1,6.815,0v3.557A3.4,3.4,0,0,1,586.061,892.328Z" transform="translate(-574 -881.969)"/>
</svg>
