<svg xmlns="http://www.w3.org/2000/svg" width="43" height="43" viewBox="0 0 43 43">
  <defs>
    <style>
      .cls-1 {
        fill: #fff;
        fill-rule: evenodd;
        opacity: 0.18;
      }
    </style>
  </defs>
  <path id="plus-add" class="cls-1" d="M629.5,849A21.5,21.5,0,1,1,651,827.5,21.5,21.5,0,0,1,629.5,849Zm0-38.039A16.539,16.539,0,1,0,646.037,827.5,16.539,16.539,0,0,0,629.5,810.96Zm6.595,18.193h-4.962v4.962a1.654,1.654,0,0,1-3.307,0v-4.962h-4.962a1.654,1.654,0,1,1,0-3.308h4.962v-4.961a1.654,1.654,0,1,1,3.307,0v4.961h4.962A1.654,1.654,0,1,1,636.093,829.153Z" transform="translate(-608 -806)"/>
</svg>
