<svg xmlns="http://www.w3.org/2000/svg" width="52.969" height="50.03" viewBox="0 0 52.969 50.03">
  <defs>
    <style>
      .cls-1 {
        fill: #fff;
        fill-rule: evenodd;
      }
    </style>
  </defs>
  <path id="polaroid" class="cls-1" d="M232.523,1138.51l-2.358,8.83-0.067.01-2.576,9.64-16.648-4.47-0.2.05-17.529-4.71-0.031-.11-4.664-1.25,0.884-3.31,0.058,0.01,8.648-32.36-0.058-.01,0.911-3.41,30.636,8.23,0.027-.1,8.436,2.27-5.5,20.58Zm1.161-18.2-32.277-8.67-6.373,23.84,32.277,8.68Zm-28.92,6.99,2.14,3.67,5.566-5.25,2.834,4.97,7.493-6.63,1.875,15.37-24.754-6.65Zm1.6-3.61a2.645,2.645,0,1,1,3.231-1.87A2.648,2.648,0,0,1,206.363,1123.69Zm15.246-12.39-0.742.2-6.8-1.83,10.025-2.69,1.551,5.8-3.923-1.05Zm-32.277,8.67,2.224,8.32-1.821,6.82-4.711-17.64,10.151-2.72-1.051,3.93Zm6.161,36.68-1.823-6.82,13.606,3.66Z" transform="translate(-185.031 -1106.97)"/>
</svg>
