<svg xmlns="http://www.w3.org/2000/svg" width="23" height="13" viewBox="0 0 23 13">
  <defs>
    <style>
      .cls-1 {
        fill: #fff;
        fill-rule: evenodd;
      }
    </style>
  </defs>
  <path id="preview" class="cls-1" d="M585.009,40.5a5.611,5.611,0,0,0,1.947-1.152S590.243,34,596.444,34h0c6.2,0,9.488,5.35,9.488,5.35a5.7,5.7,0,0,0,2.059,1.152h0a5.7,5.7,0,0,0-2.059,1.152S602.645,47,596.444,47h0c-6.2,0-9.488-5.35-9.488-5.35a5.607,5.607,0,0,0-1.947-1.152h0Zm11.466-2.915a2.924,2.924,0,1,1-3.031,2.922A2.978,2.978,0,0,1,596.475,37.585Zm0.068,1.4a1.481,1.481,0,1,1-1.535,1.48A1.508,1.508,0,0,1,596.543,38.99Z" transform="translate(-585 -34)"/>
</svg>
