<svg xmlns="http://www.w3.org/2000/svg" width="46" height="31" viewBox="0 0 46 31">
  <defs>
    <style>
      .cls-1 {
        fill: #fff;
        fill-rule: evenodd;
      }
    </style>
  </defs>
  <path id="reach" class="cls-1" d="M204.9,2429.43a4.728,4.728,0,0,1,3.067-1.43l22.157-.01a4.266,4.266,0,0,1,2.97,1.48s8.9,10.18,8.9,11.81v14.77a2.959,2.959,0,0,1-2.968,2.95H198.968a2.959,2.959,0,0,1-2.968-2.95v-14.77C196,2439.65,204.9,2429.43,204.9,2429.43Zm3.014,1.52c-0.775-.01-1.577,1.38-1.577,1.38l-6.074,8.95h13.448a1.514,1.514,0,0,1,1.483,1.66v2.77a1.451,1.451,0,0,0,1.484,1.48h4.591a1.64,1.64,0,0,0,1.484-1.48v-3.04a1.474,1.474,0,0,1,1.484-1.39h13.4l-6.028-8.95a3.5,3.5,0,0,0-1.391-1.38H207.917Zm-0.046,2.91a1.4,1.4,0,0,1,1.437-1.43h19.337s1.484,0.27,1.484,1.38Zm-1.484,2.95a1.4,1.4,0,0,1,1.437-1.43h22.3s1.484,0.28,1.484,1.38Zm-1.484,2.95a1.465,1.465,0,0,1,1.438-1.52H231.52s1.484,0.37,1.484,1.48Z" transform="translate(-196 -2428)"/>
</svg>
