<svg xmlns="http://www.w3.org/2000/svg" width="24.81" height="25.938" viewBox="0 0 24.81 25.938">
  <defs>
    <style>
      .cls-1 {
        fill: #2a2a2a;
        fill-rule: evenodd;
      }
    </style>
  </defs>
  <path id="search" class="cls-1" d="M1314.8,51.035a11.672,11.672,0,0,1-4.48.86,9.375,9.375,0,0,1-9.34-9.548,9.256,9.256,0,0,1,9.34-9.408,9.434,9.434,0,0,1,9.55,9.408,10.537,10.537,0,0,1-1.84,6.068l7.41,6.953a1.109,1.109,0,0,1,0,1.579l-1.58,1.579a1.117,1.117,0,0,1-1.58,0ZM1310.44,36.8a5.653,5.653,0,1,1-5.65,5.654A5.652,5.652,0,0,1,1310.44,36.8Z" transform="translate(-1300.97 -32.938)"/>
</svg>
