<svg xmlns="http://www.w3.org/2000/svg" width="16.906" height="14.031" viewBox="0 0 16.906 14.031">
  <defs>
    <style>
      .cls-1 {
        fill: #fff;
        fill-rule: evenodd;
      }
    </style>
  </defs>
  <path id="shop" class="cls-1" d="M659.675,38.833a0.508,0.508,0,0,1-.584-0.583V37.083a0.57,0.57,0,0,1,.6-0.584h3.469v0.584a1.112,1.112,0,0,0,1.114,1.166h0.645c1.279-.055,1.619-1.75,1.619-1.75h2.009s0.311,1.75,1.643,1.75h0.593a1.074,1.074,0,0,0,1.16-1.166V36.518h3.506c0.621,0,.548,1.148.548,1.148v0.584a0.572,0.572,0,0,1-.584.583H659.675Zm15.216,0.6-0.608,6.932a0.657,0.657,0,0,1-.62.619L661.428,47a0.732,0.732,0,0,1-.6-0.6l-0.592-6.989ZM668.44,33h0.584a1,1,0,0,1,.585.584l1.753,3.5c0,0.322-.006.583-0.585,0.583h-0.584a0.876,0.876,0,0,1-.584-0.583l-1.753-3.5A0.482,0.482,0,0,1,668.44,33Zm-1.753,0H666.1a1,1,0,0,0-.584.584l-1.753,3.5c0,0.322.006,0.583,0.584,0.583h0.584a0.877,0.877,0,0,0,.585-0.583l1.753-3.5A0.483,0.483,0,0,0,666.687,33Z" transform="translate(-659.094 -33)"/>
</svg>
