<svg xmlns="http://www.w3.org/2000/svg" width="44" height="30" viewBox="0 0 44 30">
  <defs>
    <style>
      .cls-1 {
        fill: #fff;
        fill-rule: evenodd;
      }
    </style>
  </defs>
  <path id="sound2" class="cls-1" d="M223.154,2172.95a22.086,22.086,0,0,0-.013-29.96l-1.712,2.03a18.635,18.635,0,0,1,.014,25.85Zm-4.636-4.13a15.166,15.166,0,0,0,4.542-10.86,15.488,15.488,0,0,0-4.462-10.82l-1.527,2.14a12.015,12.015,0,0,1-.138,17.48Zm-4.338-4.46a8.467,8.467,0,0,0-.073-12.87l-1.218,2.42a5.274,5.274,0,0,1,1.9,4.04c0,1.78-.413,3.39-1.788,4.36Zm-7.857,8.64-10.305-7.02v-15.92l10.305-6.94c1.359,0,3.306,1,3.306,2.24v25.4C209.629,2171.99,207.682,2173,206.323,2173Zm-11.452-7.25H187.46c-1.359,0-2.46-1.59-2.46-2.83v-9.72c0-1.24,1.1-3,2.46-3h7.411v15.55Z" transform="translate(-185 -2143)"/>
</svg>
