<svg xmlns="http://www.w3.org/2000/svg" width="18.906" height="17.25" viewBox="0 0 18.906 17.25">
  <defs>
    <style>
      .cls-1 {
        fill: #fff;
        fill-rule: evenodd;
      }
    </style>
  </defs>
  <path id="sound" class="cls-1" d="M311.679,1037.15h-0.63l-2.684,1.94a1.531,1.531,0,0,1-1.217.67h-1.51a1.351,1.351,0,0,0-1.3,1.32v1.37a1.186,1.186,0,0,0,1.342,1.33h1.342a2.866,2.866,0,0,1,1.385.66l2.642,1.95,0.671,0.08a0.684,0.684,0,0,0,.714-0.66v-8A0.716,0.716,0,0,0,311.679,1037.15Zm8.257,13.17a12.911,12.911,0,0,0,.014-17.24l-1.009,1.22a10.859,10.859,0,0,1,.007,14.78Zm-2.682-2.36a8.886,8.886,0,0,0,.086-12.45l-0.862,1.23a6.956,6.956,0,0,1-.078,9.98Zm-2.41-2.61a4.879,4.879,0,0,0-.041-7.36l-0.689,1.39a3.031,3.031,0,0,1,1.075,2.31,3.372,3.372,0,0,1-1.618,2.47Z" transform="translate(-304.344 -1033.06)"/>
</svg>
