<svg xmlns="http://www.w3.org/2000/svg" width="47" height="42" viewBox="0 0 47 42">
  <defs>
    <style>
      .cls-1 {
        fill: #fff;
        fill-rule: evenodd;
      }
    </style>
  </defs>
  <path id="strike-month" class="cls-1" d="M176.133,3152.67a3.12,3.12,0,0,0-3.133,3.11v31.11a3.12,3.12,0,0,0,3.133,3.11h40.734a3.12,3.12,0,0,0,3.133-3.11v-31.11a3.12,3.12,0,0,0-3.133-3.11h-4.7v1.55s-0.049,4.72-4.7,4.72c0,0-4.7-.05-4.7-4.67l-0.049-1.6H190.184v1.55s0.049,4.72-4.651,4.72c0,0-4.749.05-4.749-4.67v-1.6h-4.651Zm9.4-4.67a3.12,3.12,0,0,1,3.133,3.11v3.11a3.133,3.133,0,0,1-6.266,0v-3.11A3.12,3.12,0,0,1,185.533,3148Zm21.934,0a3.12,3.12,0,0,1,3.133,3.11v3.11a3.134,3.134,0,0,1-6.267,0v-3.11A3.12,3.12,0,0,1,207.467,3148Zm-9.4,32.67H205.9v4.66h-7.833v-4.66Zm10.966,0h7.834v4.66h-7.834v-4.66Zm-19.779-20.13-1.567,1.65,2.448,2.53-2.546,2.14-0.783,2.19,4.211-2.77,3.427,2.57,0.2-1.45,0.686-.73L192,3164.72l5.287-4.76-2.252.19-3.721,2.82Zm-10.966,0-1.567,1.65,2.448,2.53-2.546,2.14-0.784,2.19,4.211-2.77,3.427,2.57,0.2-1.45,0.685-.73-3.329-1.95,5.288-4.76-2.252.19-3.721,2.82Zm32.9,0-1.566,1.65,2.448,2.53-2.546,2.14-0.783,2.19,4.21-2.77,3.427,2.57,0.2-1.45,0.685-.73-3.329-1.95,5.288-4.76-2.252.19-3.721,2.82Zm-10.966,0-1.567,1.65,2.448,2.53-2.546,2.14-0.783,2.19,4.21-2.77,3.427,2.57,0.2-1.45,0.686-.73-3.33-1.95,5.288-4.76-2.252.19-3.721,2.82Zm-10.967,9.33-1.567,1.66,2.448,2.53-2.546,2.13-0.783,2.19,4.211-2.77,3.427,2.58,0.2-1.46,0.686-.73L192,3174.06l5.287-4.77-2.252.2-3.721,2.81Zm-10.966,0-1.567,1.66,2.448,2.53-2.546,2.13-0.784,2.19,4.211-2.77,3.427,2.58,0.2-1.46,0.685-.73-3.329-1.94,5.288-4.77-2.252.2-3.721,2.81Zm32.9,0-1.566,1.66,2.448,2.53-2.546,2.13-0.783,2.19,4.21-2.77,3.427,2.58,0.2-1.46,0.685-.73-3.329-1.94,5.288-4.77-2.252.2-3.721,2.81Zm-10.966,0-1.567,1.66,2.448,2.53-2.546,2.13-0.783,2.19,4.21-2.77,3.427,2.58,0.2-1.46,0.686-.73-3.33-1.94,5.288-4.77-2.252.2-3.721,2.81Zm-10.967,9.34-1.567,1.65,2.448,2.53-2.546,2.14-0.783,2.18,4.211-2.77,3.427,2.58,0.2-1.46,0.686-.73L192,3183.39l5.287-4.77-2.252.2-3.721,2.82Zm-10.966,0-1.567,1.65,2.448,2.53-2.546,2.14-0.784,2.18,4.211-2.77,3.427,2.58,0.2-1.46,0.685-.73-3.329-1.94,5.288-4.77-2.252.2-3.721,2.82Z" transform="translate(-173 -3148)"/>
</svg>
