<svg xmlns="http://www.w3.org/2000/svg" width="27" height="18" viewBox="0 0 27 18">
  <defs>
    <style>
      .cls-1 {
        fill: #1ac2fe;
        fill-rule: evenodd;
      }
    </style>
  </defs>
  <path id="table" class="cls-1" d="M1216,1360h4a2.006,2.006,0,0,1,2,2v4a2.006,2.006,0,0,1-2,2h-4a2.006,2.006,0,0,1-2-2v-4A2.006,2.006,0,0,1,1216,1360Zm0,10h4a2.006,2.006,0,0,1,2,2v4a2.006,2.006,0,0,1-2,2h-4a2.006,2.006,0,0,1-2-2v-4A2.006,2.006,0,0,1,1216,1370Zm9-10h15a1,1,0,0,1,0,2h-15A1,1,0,0,1,1225,1360Zm0,5h15a1,1,0,0,1,0,2h-15A1,1,0,0,1,1225,1365Zm0,5h15a1,1,0,0,1,0,2h-15A1,1,0,0,1,1225,1370Zm0,5h15a1,1,0,0,1,0,2h-15A1,1,0,0,1,1225,1375Z" transform="translate(-1214 -1360)"/>
</svg>
