<svg xmlns="http://www.w3.org/2000/svg" width="29.719" height="29.72" viewBox="0 0 29.719 29.72">
  <defs>
    <style>
      .cls-1 {
        fill: #fff;
        fill-rule: evenodd;
      }
    </style>
  </defs>
  <path id="tools" class="cls-1" d="M213.022,2652.61l-6.394,6.39,2.114,2.12,2.808-2.81,0.685,0.69-2.807,2.8,2.188,2.19,2.821-2.82,0.641,0.64-2.821,2.82,2.159,2.16,6.416-6.41m15.525,15.57-6.394,6.39-2.114-2.12,2.808-2.8-0.686-.69-2.807,2.81-2.189-2.19,2.822-2.82-0.641-.64-2.822,2.82-2.159-2.16,6.416-6.42m-17.334,3.17,14.885-14.88,6.37,6.37-14.886,14.88Zm15.571-11.29-0.7-.7-11.981,11.98,0.7,0.7Zm1.4,1.39-0.7-.69-11.981,11.98,0.7,0.69Zm1.4,1.4-0.7-.7-11.981,11.98,0.7,0.7Zm-0.626-9.19a1.993,1.993,0,0,1,2.821-.02l3.511,3.52a1.994,1.994,0,0,1-.012,2.82l-2.169,2.17-6.321-6.32Zm-18.228,18.52,6.031,6.03-5.284,1.88-2.623-2.62Zm-0.254,8.24-3.066,1.11,1.117-3.06Z" transform="translate(-206.625 -2652.62)"/>
</svg>
