<svg viewBox="0 0 207 207" xmlns="http://www.w3.org/2000/svg"><g transform="translate(-.5 -.5)"><path d="m.5 186.5v-165a11.73 11.73 0 0 0 .57-1.6c1.79-9.54 7.37-15.63 16.66-18.37 1.27-.36 2.51-.69 3.77-1.03h165a10.53 10.53 0 0 0 1.6.57c9.63 1.84 15.76 7.49 18.45 16.9.33 1.17.63 2.35.95 3.53v165a10.53 10.53 0 0 0 -.57 1.6c-1.79 9.54-7.38 15.62-16.66 18.36-1.25.37-2.51.7-3.77 1h-165a10.53 10.53 0 0 0 -1.6-.57q-14.44-2.72-18.44-16.89c-.34-1.14-.64-2.32-.96-3.5zm178-30.12c0-2.33.11-4.23 0-6.12q-1.14-16.94-2.36-33.86c-.61-8.54-1.24-17.09-1.84-25.63-.37-5.23-1.25-10.5-.88-15.67.44-6.26 2-12.45 3-18.66.87-5.21 1.7-10.42 2.61-16h-35.33c1.13-5.83 2.21-11.32 3.31-16.94h-83.66v17.08h-34.35c1.42 9.94 2.79 19.54 4.14 29.15.57 4 1.64 8.07 1.53 12.08-.23 8.3-1.13 16.59-1.69 24.89q-1.79 26.39-3.52 52.79c-.16 2.54-.23 5.09-.36 8l34.51-10.3v29.86a7.21 7.21 0 0 0 1.27 0c16.35-3.28 32.7-6.6 49.06-9.82 1.57-.31 1.8-1 1.79-2.35 0-6.66 0-13.33 0-20v-2.71z"/><g fill="#fff"><path d="m21.5.5c-1.26.34-2.52.67-3.77 1-9.29 2.77-14.87 8.86-16.66 18.4a11.73 11.73 0 0 1 -.57 1.6v-21z"/><path d="m207.5 21.5c-.32-1.18-.62-2.36-.95-3.53-2.69-9.41-8.82-15.06-18.45-16.9a10.53 10.53 0 0 1 -1.6-.57h21z"/><path d="m.5 186.5c.32 1.18.62 2.36 1 3.54q4 14.11 18.44 16.89a10.53 10.53 0 0 1 1.6.57h-21.04z"/><path d="m186.5 207.5c1.26-.34 2.52-.67 3.77-1 9.28-2.74 14.87-8.82 16.66-18.36a10.53 10.53 0 0 1 .57-1.6v21z"/><path d="m178.5 156.38-62.81-4.17v2.71 20c0 1.33-.22 2-1.79 2.35-16.36 3.22-32.71 6.54-49.06 9.82a7.21 7.21 0 0 1 -1.27 0v-29.86l-34.51 10.3c.13-2.95.2-5.5.36-8q1.74-26.4 3.52-52.79c.56-8.3 1.46-16.59 1.69-24.89.11-4-1-8.06-1.53-12.08-1.34-9.65-2.71-19.25-4.1-29.19h34.35v-17.07h83.65c-1.1 5.62-2.18 11.11-3.31 16.94h35.31c-.91 5.57-1.74 10.78-2.61 16-1 6.21-2.57 12.4-3 18.66-.37 5.17.51 10.44.88 15.67.6 8.54 1.23 17.09 1.84 25.63q1.2 16.93 2.36 33.86c.14 1.88.03 3.78.03 6.11zm-102.84 16.11c.83-.08 1.41-.08 2-.19 7.81-1.58 15.59-3.3 23.43-4.67 2.41-.42 2.81-1.37 2.8-3.56-.1-15.24-.05-30.49-.05-45.74v-3.12h22.85v-28.13h-2.83c-6 0-12 0-18 0-1.23 0-2-.15-2-1.72q.08-10.12 0-20.25c0-1.57.81-1.73 2-1.72h15.25 5.71c1.9-9.53 3.74-18.76 5.6-28h-56.76z"/></g><path d="m75.66 172.49v-137.11h56.74c-1.86 9.27-3.7 18.5-5.6 28h-5.71c-5.08 0-10.17 0-15.25 0-1.23 0-2 .15-2 1.72q.08 10.13 0 20.25c0 1.57.81 1.73 2 1.72h18 2.83v28.13h-22.85v3.12c0 15.25 0 30.5.05 45.74 0 2.19-.39 3.14-2.8 3.56-7.84 1.37-15.62 3.09-23.43 4.67-.57.12-1.15.12-1.98.2z"/></g></svg>